<svg xmlns="http://www.w3.org/2000/svg" viewBox="0 0 1200 1200"><defs><linearGradient id="bg" x1="0" x2="1"><stop stop-color="#fff3e8"/><stop offset="1" stop-color="#ffe2c7"/></linearGradient><filter id="s"><feDropShadow dx="0" dy="24" stdDeviation="24" flood-opacity=".14"/></filter></defs><rect width="1200" height="1200" fill="url(#bg)"/><circle cx="220" cy="220" r="200" fill="#ffd8ab"/><ellipse cx="600" cy="730" rx="360" ry="290" fill="#f5f7f8" filter="url(#s)"/><ellipse cx="600" cy="700" rx="290" ry="230" fill="#ffffff"/><path d="M390 640c40-100 120-160 230-170 40 100 140 120 210 200-100 60-280 80-440-30z" fill="#7db054"/><path d="M460 600c80-80 180-90 310-20-20 120-150 170-280 170-40-40-50-70-30-150z" fill="#f1ab58" opacity=".95"/><circle cx="540" cy="610" r="70" fill="#d94c3b"/><circle cx="705" cy="670" r="60" fill="#f4d66a"/></svg>